<svg width="800" height="400" viewBox="0 0 800 400" xmlns="http://www.w3.org/2000/svg">
    <!-- Фон -->
    <rect width="800" height="400" fill="#f8f9fa"/>
    
    <!-- Контур карты СССР (упрощенный) -->
    <path d="M100,50 L300,40 L400,150 L350,300 L200,350 L50,250 Z" 
          fill="none" stroke="#1a1a2e" stroke-width="2" stroke-dasharray="5,5"/>
    
    <!-- Тематические иконки -->
    <!-- Красный крест -->
    <g transform="translate(200, 150)">
        <rect x="-15" y="-5" width="30" height="10" fill="#8B0000"/>
        <rect x="-5" y="-15" width="10" height="30" fill="#8B0000"/>
    </g>
    
    <!-- Санитарная машина -->
    <g transform="translate(400, 200)">
        <rect x="-20" y="-8" width="40" height="16" rx="3" fill="#2F4F4F"/>
        <rect x="-15" y="-15" width="30" height="7" fill="#2F4F4F"/>
        <circle cx="-10" cy="8" r="5" fill="#1a1a2e"/>
        <circle cx="10" cy="8" r="5" fill="#1a1a2e"/>
        <rect x="-2" y="-12" width="4" height="4" fill="#ff6b35"/>
    </g>
    
    <!-- Госпиталь -->
    <g transform="translate(600, 250)">
        <rect x="-25" y="-15" width="50" height="30" fill="#696969"/>
        <rect x="-15" y="-25" width="30" height="10" fill="#8B0000"/>
        <rect x="-8" y="0" width="16" height="15" fill="#1a1a2e"/>
        <line x1="-20" y1="-10" x2="-10" y2="-10" stroke="#ff6b35" stroke-width="2"/>
        <line x1="10" y1="-10" x2="20" y2="-10" stroke="#ff6b35" stroke-width="2"/>
    </g>
    
    <!-- Текст-заглушка -->
    <g transform="translate(400, 100)">
        <rect x="-120" y="-20" width="240" height="40" fill="white" stroke="#e9ecef" stroke-width="1" rx="5"/>
        <text text-anchor="middle" dominant-baseline="middle" font-family="Arial, sans-serif" font-size="14" fill="#666">
            Изображение карты фронтов
        </text>
        <text text-anchor="middle" dominant-baseline="middle" y="20" font-family="Arial, sans-serif" font-size="12" fill="#999">
            (заглушка для визуализации)
        </text>
    </g>
    
    <!-- Декоративные элементы -->
    <circle cx="150" cy="280" r="3" fill="#ff6b35"/>
    <circle cx="500" cy="100" r="3" fill="#ff6b35"/>
    <circle cx="650" cy="180" r="3" fill="#ff6b35"/>
    
    <!-- Легенда -->
    <g transform="translate(50, 350)">
        <rect width="700" height="40" fill="white" stroke="#e9ecef" stroke-width="1" rx="3"/>
        <text x="10" y="15" font-family="Arial, sans-serif" font-size="12" fill="#333">⚕️ Медпункт</text>
        <text x="120" y="15" font-family="Arial, sans-serif" font-size="12" fill="#333">🚑 Эвакуация</text>
        <text x="230" y="15" font-family="Arial, sans-serif" font-size="12" fill="#333">🏥 Госпиталь</text>
        <text x="340" y="15" font-family="Arial, sans-serif" font-size="12" fill="#666">Иконки обозначают этапы медицинской помощи</text>
    </g>
</svg>